# xmcd
#
# Track frame offsets: 
#        150
#        21051
#        37761
#        53364
#        74566
#        91478
#        111236
#        129518
#        144645
#        159355
#        177906
#        203141
#
# Disc length: 3588 seconds
#
# Revision: 0
# Processed by: cddbd v1.5.2PL0 Copyright (c) Steve Scherf et al.
# Submitted via: ExactAudioCopyFreeDBPlugin 1.0
#
DISCID=9c0e020c
DTITLE=Madison County - Enjoy The Ride
DYEAR=2008
DGENRE=Country
TTITLE0=Enjoy the Ride
TTITLE1=Nobody's EMily
TTITLE2=I Really Liked Her But
TTITLE3=This Ain't My Town Anymore
TTITLE4=I'm Your Man
TTITLE5=Completely Incomplete
TTITLE6=Rise Above
TTITLE7=Make My Way Back Home
TTITLE8=You Won't Be Lonely Long
TTITLE9=Little Hero
TTITLE10=Breathless
TTITLE11=Data
EXTD=
EXTT0=
EXTT1=
EXTT2=
EXTT3=
EXTT4=
EXTT5=
EXTT6=
EXTT7=
EXTT8=
EXTT9=
EXTT10=
EXTT11=
PLAYORDER=
